<svg width="80" height="80" viewBox="0 0 100 100" xmlns="http://www.w3.org/2000/svg">
    <defs>
        <radialGradient id="sun13d" cx="50%" cy="30%" r="40%">
            <stop offset="0%" style="stop-color:#FFE066;stop-opacity:0.7" />
            <stop offset="100%" style="stop-color:#FF8C42;stop-opacity:0.7" />
        </radialGradient>
        <linearGradient id="snowClouds13d" x1="0%" y1="0%" x2="100%" y2="100%">
            <stop offset="0%" style="stop-color:#F8FAFC;stop-opacity:1" />
            <stop offset="100%" style="stop-color:#CBD5E1;stop-opacity:1" />
        </linearGradient>
        <filter id="snowShadow13d">
            <feDropShadow dx="2" dy="3" stdDeviation="2" flood-color="#94A3B8" flood-opacity="0.3"/>
        </filter>
    </defs>
    <circle cx="22" cy="22" r="7" fill="url(#sun13d)" opacity="0.8" />
    <ellipse cx="55" cy="38" rx="20" ry="13" fill="url(#snowClouds13d)" filter="url(#snowShadow13d)" />
    <circle cx="40" cy="33" r="10" fill="url(#snowClouds13d)" />
    <circle cx="70" cy="33" r="12" fill="url(#snowClouds13d)" />
    <circle cx="55" cy="28" r="8" fill="url(#snowClouds13d)" />
    <g fill="#FFFFFF" stroke="#CBD5E1" stroke-width="0.5">
        <g transform="translate(45,58)">
            <line x1="-4" y1="0" x2="4" y2="0" stroke-width="1"/>
            <line x1="0" y1="-4" x2="0" y2="4" stroke-width="1"/>
            <line x1="-3" y1="-3" x2="3" y2="3" stroke-width="1"/>
            <line x1="-3" y1="3" x2="3" y2="-3" stroke-width="1"/>
        </g>
        <g transform="translate(60,65)">
            <line x1="-3" y1="0" x2="3" y2="0" stroke-width="1"/>
            <line x1="0" y1="-3" x2="0" y2="3" stroke-width="1"/>
            <line x1="-2" y1="-2" x2="2" y2="2" stroke-width="1"/>
            <line x1="-2" y1="2" x2="2" y2="-2" stroke-width="1"/>
        </g>
        <g transform="translate(38,68)">
            <line x1="-3" y1="0" x2="3" y2="0" stroke-width="1"/>
            <line x1="0" y1="-3" x2="0" y2="3" stroke-width="1"/>
            <line x1="-2" y1="-2" x2="2" y2="2" stroke-width="1"/>
            <line x1="-2" y1="2" x2="2" y2="-2" stroke-width="1"/>
        </g>
        <g transform="translate(52,72)">
            <line x1="-4" y1="0" x2="4" y2="0" stroke-width="1"/>
            <line x1="0" y1="-4" x2="0" y2="4" stroke-width="1"/>
            <line x1="-3" y1="-3" x2="3" y2="3" stroke-width="1"/>
            <line x1="-3" y1="3" x2="3" y2="-3" stroke-width="1"/>
        </g>
    </g>
</svg>