<svg width="80" height="80" viewBox="0 0 100 100" xmlns="http://www.w3.org/2000/svg">
    <defs>
        <radialGradient id="moon13n" cx="40%" cy="30%" r="40%">
            <stop offset="0%" style="stop-color:#E2E8F0;stop-opacity:0.8" />
            <stop offset="100%" style="stop-color:#94A3B8;stop-opacity:0.8" />
        </radialGradient>
        <linearGradient id="snowClouds13n" x1="0%" y1="0%" x2="100%" y2="100%">
            <stop offset="0%" style="stop-color:#CBD5E1;stop-opacity:1" />
            <stop offset="100%" style="stop-color:#94A3B8;stop-opacity:1" />
        </linearGradient>
        <filter id="snowShadow13n">
            <feDropShadow dx="2" dy="3" stdDeviation="2" flood-color="#475569" flood-opacity="0.4"/>
        </filter>
    </defs>
    <circle cx="22" cy="22" r="6" fill="url(#moon13n)" opacity="0.8" />
    <ellipse cx="57" cy="38" rx="20" ry="13" fill="url(#snowClouds13n)" filter="url(#snowShadow13n)" />
    <circle cx="42" cy="33" r="10" fill="url(#snowClouds13n)" />
    <circle cx="72" cy="33" r="12" fill="url(#snowClouds13n)" />
    <circle cx="57" cy="28" r="8" fill="url(#snowClouds13n)" />
    <g fill="#FFFFFF" stroke="#E2E8F0" stroke-width="0.5">
        <g transform="translate(47,58)">
            <line x1="-4" y1="0" x2="4" y2="0" stroke-width="1"/>
            <line x1="0" y1="-4" x2="0" y2="4" stroke-width="1"/>
            <line x1="-3" y1="-3" x2="3" y2="3" stroke-width="1"/>
            <line x1="-3" y1="3" x2="3" y2="-3" stroke-width="1"/>
        </g>
        <g transform="translate(62,65)">
            <line x1="-3" y1="0" x2="3" y2="0" stroke-width="1"/>
            <line x1="0" y1="-3" x2="0" y2="3" stroke-width="1"/>
            <line x1="-2" y1="-2" x2="2" y2="2" stroke-width="1"/>
            <line x1="-2" y1="2" x2="2" y2="-2" stroke-width="1"/>
        </g>
        <g transform="translate(40,68)">
            <line x1="-3" y1="0" x2="3" y2="0" stroke-width="1"/>
            <line x1="0" y1="-3" x2="0" y2="3" stroke-width="1"/>
            <line x1="-2" y1="-2" x2="2" y2="2" stroke-width="1"/>
            <line x1="-2" y1="2" x2="2" y2="-2" stroke-width="1"/>
        </g>
        <g transform="translate(54,72)">
            <line x1="-4" y1="0" x2="4" y2="0" stroke-width="1"/>
            <line x1="0" y1="-4" x2="0" y2="4" stroke-width="1"/>
            <line x1="-3" y1="-3" x2="3" y2="3" stroke-width="1"/>
            <line x1="-3" y1="3" x2="3" y2="-3" stroke-width="1"/>
        </g>
    </g>
</svg>